<svg xmlns="http://www.w3.org/2000/svg" version="1.1" xmlns:xlink="http://www.w3.org/1999/xlink" xmlns:svgjs="http://svgjs.dev/svgjs" width="128" height="148"><svg width="128" height="148" viewBox="0 0 128 148" fill="none" xmlns="http://www.w3.org/2000/svg">
<circle cx="64" cy="74" r="64" fill="#4054F9"></circle>
<path d="M69.9654 42C74.5197 42 78.649 43.0629 82.3532 45.1886C86.1181 47.2535 89.0632 50.1991 91.1885 54.0254C93.3139 57.791 94.3766 62.1942 94.3766 67.2352C94.3766 72.2761 93.3139 76.7097 91.1885 80.536C89.0632 84.3015 86.1181 87.2472 82.3532 89.3729C78.649 91.4378 74.5197 92.4703 69.9654 92.4703C63.7108 92.4703 58.7922 90.4965 55.2095 86.5487V109.415H41V42.7288H54.5719V48.3771C58.0939 44.1257 63.225 42 69.9654 42ZM67.5061 80.8093C71.1496 80.8093 74.125 79.5946 76.4326 77.1653C78.8008 74.6751 79.9849 71.3651 79.9849 67.2352C79.9849 63.1052 78.8008 59.8256 76.4326 57.3962C74.125 54.9061 71.1496 53.661 67.5061 53.661C63.8627 53.661 60.8568 54.9061 58.4886 57.3962C56.181 59.8256 55.0273 63.1052 55.0273 67.2352C55.0273 71.3651 56.181 74.6751 58.4886 77.1653C60.8568 79.5946 63.8627 80.8093 67.5061 80.8093Z" fill="white"></path>
</svg><style>@media (prefers-color-scheme: light) { :root { filter: none; } }
@media (prefers-color-scheme: dark) { :root { filter: none; } }
</style></svg>