<svg width="226" height="188" viewBox="0 0 226 188" fill="none" xmlns="http://www.w3.org/2000/svg">
<circle cx="2.32809" cy="2.32809" r="2.32809" transform="matrix(4.37114e-08 1 1 -4.37114e-08 3.104 0)" fill="#BEC2FD"/>
<circle cx="2.32809" cy="2.32809" r="2.32809" transform="matrix(4.37114e-08 1 1 -4.37114e-08 3.104 27.9365)" fill="#BEC2FD"/>
<circle cx="2.32809" cy="2.32809" r="2.32809" transform="matrix(4.37114e-08 1 1 -4.37114e-08 3.104 55.874)" fill="#BEC2FD"/>
<circle cx="2.32809" cy="2.32809" r="2.32809" transform="matrix(4.37114e-08 1 1 -4.37114e-08 3.104 83.8115)" fill="#BEC2FD"/>
<circle cx="2.32809" cy="2.32809" r="2.32809" transform="matrix(4.37114e-08 1 1 -4.37114e-08 3.10449 111.748)" fill="#BEC2FD"/>
<circle cx="2.32809" cy="2.32809" r="2.32809" transform="matrix(4.37114e-08 1 1 -4.37114e-08 3.104 139.686)" fill="#BEC2FD"/>
<circle cx="2.32809" cy="2.32809" r="2.32809" transform="matrix(4.37114e-08 1 1 -4.37114e-08 34.1455 0)" fill="#BEC2FD"/>
<circle cx="2.32809" cy="2.32809" r="2.32809" transform="matrix(4.37114e-08 1 1 -4.37114e-08 34.1455 27.9365)" fill="#BEC2FD"/>
<circle cx="2.32809" cy="2.32809" r="2.32809" transform="matrix(4.37114e-08 1 1 -4.37114e-08 34.1455 55.874)" fill="#BEC2FD"/>
<circle cx="2.32809" cy="2.32809" r="2.32809" transform="matrix(4.37114e-08 1 1 -4.37114e-08 34.1455 83.8115)" fill="#BEC2FD"/>
<circle cx="2.32809" cy="2.32809" r="2.32809" transform="matrix(4.37114e-08 1 1 -4.37114e-08 34.1455 111.748)" fill="#BEC2FD"/>
<circle cx="2.32809" cy="2.32809" r="2.32809" transform="matrix(4.37114e-08 1 1 -4.37114e-08 34.1455 139.686)" fill="#BEC2FD"/>
<circle cx="2.32809" cy="2.32809" r="2.32809" transform="matrix(4.37114e-08 1 1 -4.37114e-08 65.187 0)" fill="#BEC2FD"/>
<circle cx="2.32809" cy="2.32809" r="2.32809" transform="matrix(4.37114e-08 1 1 -4.37114e-08 65.187 27.9365)" fill="#BEC2FD"/>
<circle cx="2.32809" cy="2.32809" r="2.32809" transform="matrix(4.37114e-08 1 1 -4.37114e-08 65.187 55.874)" fill="#BEC2FD"/>
<circle cx="2.32809" cy="2.32809" r="2.32809" transform="matrix(4.37114e-08 1 1 -4.37114e-08 65.187 83.8115)" fill="#BEC2FD"/>
<circle cx="2.32809" cy="2.32809" r="2.32809" transform="matrix(4.37114e-08 1 1 -4.37114e-08 65.187 111.748)" fill="#BEC2FD"/>
<circle cx="2.32809" cy="2.32809" r="2.32809" transform="matrix(4.37114e-08 1 1 -4.37114e-08 65.187 139.686)" fill="#BEC2FD"/>
<circle cx="2.32809" cy="2.32809" r="2.32809" transform="matrix(4.37114e-08 1 1 -4.37114e-08 96.228 0)" fill="#BEC2FD"/>
<circle cx="2.32809" cy="2.32809" r="2.32809" transform="matrix(4.37114e-08 1 1 -4.37114e-08 96.228 27.9365)" fill="#BEC2FD"/>
<circle cx="2.32809" cy="2.32809" r="2.32809" transform="matrix(4.37114e-08 1 1 -4.37114e-08 96.228 55.874)" fill="#BEC2FD"/>
<circle cx="2.32809" cy="2.32809" r="2.32809" transform="matrix(4.37114e-08 1 1 -4.37114e-08 96.228 83.8115)" fill="#BEC2FD"/>
<circle cx="2.32809" cy="2.32809" r="2.32809" transform="matrix(4.37114e-08 1 1 -4.37114e-08 96.2275 111.749)" fill="#BEC2FD"/>
<circle cx="2.32809" cy="2.32809" r="2.32809" transform="matrix(4.37114e-08 1 1 -4.37114e-08 96.2275 139.686)" fill="#BEC2FD"/>
<circle cx="2.32809" cy="2.32809" r="2.32809" transform="matrix(4.37114e-08 1 1 -4.37114e-08 127.269 0)" fill="#BEC2FD"/>
<circle cx="2.32809" cy="2.32809" r="2.32809" transform="matrix(4.37114e-08 1 1 -4.37114e-08 127.269 27.9365)" fill="#BEC2FD"/>
<circle cx="2.32809" cy="2.32809" r="2.32809" transform="matrix(4.37114e-08 1 1 -4.37114e-08 127.269 55.874)" fill="#BEC2FD"/>
<circle cx="2.32809" cy="2.32809" r="2.32809" transform="matrix(4.37114e-08 1 1 -4.37114e-08 127.269 83.8115)" fill="#BEC2FD"/>
<circle cx="2.32809" cy="2.32809" r="2.32809" transform="matrix(4.37114e-08 1 1 -4.37114e-08 127.269 111.749)" fill="#BEC2FD"/>
<circle cx="2.32809" cy="2.32809" r="2.32809" transform="matrix(4.37114e-08 1 1 -4.37114e-08 127.269 139.686)" fill="#BEC2FD"/>
<circle cx="2.32809" cy="2.32809" r="2.32809" transform="matrix(4.37114e-08 1 1 -4.37114e-08 158.311 0)" fill="#BEC2FD"/>
<circle cx="2.32809" cy="2.32809" r="2.32809" transform="matrix(4.37114e-08 1 1 -4.37114e-08 158.311 27.9375)" fill="#BEC2FD"/>
<circle cx="2.32809" cy="2.32809" r="2.32809" transform="matrix(4.37114e-08 1 1 -4.37114e-08 158.311 55.874)" fill="#BEC2FD"/>
<circle cx="2.32809" cy="2.32809" r="2.32809" transform="matrix(4.37114e-08 1 1 -4.37114e-08 158.311 83.8115)" fill="#BEC2FD"/>
<circle cx="2.32809" cy="2.32809" r="2.32809" transform="matrix(4.37114e-08 1 1 -4.37114e-08 158.311 111.749)" fill="#BEC2FD"/>
<circle cx="2.32809" cy="2.32809" r="2.32809" transform="matrix(4.37114e-08 1 1 -4.37114e-08 158.311 139.686)" fill="#BEC2FD"/>
<circle cx="2.32809" cy="2.32809" r="2.32809" transform="matrix(4.37114e-08 1 1 -4.37114e-08 189.352 0)" fill="#BEC2FD"/>
<circle cx="2.32809" cy="2.32809" r="2.32809" transform="matrix(4.37114e-08 1 1 -4.37114e-08 189.352 27.9365)" fill="#BEC2FD"/>
<circle cx="2.32809" cy="2.32809" r="2.32809" transform="matrix(4.37114e-08 1 1 -4.37114e-08 189.352 55.874)" fill="#BEC2FD"/>
<circle cx="2.32809" cy="2.32809" r="2.32809" transform="matrix(4.37114e-08 1 1 -4.37114e-08 189.352 83.8115)" fill="#BEC2FD"/>
<circle cx="2.32809" cy="2.32809" r="2.32809" transform="matrix(4.37114e-08 1 1 -4.37114e-08 189.352 111.748)" fill="#BEC2FD"/>
<circle cx="2.32809" cy="2.32809" r="2.32809" transform="matrix(4.37114e-08 1 1 -4.37114e-08 189.352 139.686)" fill="#BEC2FD"/>
<circle cx="2.32809" cy="2.32809" r="2.32809" transform="matrix(4.37114e-08 1 1 -4.37114e-08 220.393 0)" fill="#BEC2FD"/>
<circle cx="2.32809" cy="2.32809" r="2.32809" transform="matrix(4.37114e-08 1 1 -4.37114e-08 220.393 27.9365)" fill="#BEC2FD"/>
<circle cx="2.32809" cy="2.32809" r="2.32809" transform="matrix(4.37114e-08 1 1 -4.37114e-08 220.393 55.874)" fill="#BEC2FD"/>
<circle cx="2.32809" cy="2.32809" r="2.32809" transform="matrix(4.37114e-08 1 1 -4.37114e-08 220.393 83.8115)" fill="#BEC2FD"/>
<circle cx="2.32809" cy="2.32809" r="2.32809" transform="matrix(4.37114e-08 1 1 -4.37114e-08 220.393 111.748)" fill="#BEC2FD"/>
<circle cx="2.32809" cy="2.32809" r="2.32809" transform="matrix(4.37114e-08 1 1 -4.37114e-08 220.393 139.686)" fill="#BEC2FD"/>
<circle cx="6.20825" cy="6.20825" r="6.20825" transform="matrix(4.37114e-08 1 1 -4.37114e-08 0 175.383)" fill="#F3DC6B"/>
<circle cx="3.88016" cy="3.88016" r="3.88016" transform="matrix(4.37114e-08 1 1 -4.37114e-08 63.6348 83.8115)" fill="#4054F9"/>
</svg>
