<svg width="226" height="188" fill="none" xmlns="http://www.w3.org/2000/svg"><circle cx="2.328" cy="2.328" r="2.328" transform="matrix(0 1 1 0 3.104 0)" fill="#BEC2FD"/><circle cx="2.328" cy="2.328" r="2.328" transform="matrix(0 1 1 0 3.104 27.936)" fill="#BEC2FD"/><circle cx="2.328" cy="2.328" r="2.328" transform="matrix(0 1 1 0 3.104 55.874)" fill="#BEC2FD"/><circle cx="2.328" cy="2.328" r="2.328" transform="matrix(0 1 1 0 3.104 83.811)" fill="#BEC2FD"/><circle cx="2.328" cy="2.328" r="2.328" transform="matrix(0 1 1 0 3.104 111.748)" fill="#BEC2FD"/><circle cx="2.328" cy="2.328" r="2.328" transform="matrix(0 1 1 0 3.104 139.686)" fill="#BEC2FD"/><circle cx="2.328" cy="2.328" r="2.328" transform="matrix(0 1 1 0 34.145 0)" fill="#BEC2FD"/><circle cx="2.328" cy="2.328" r="2.328" transform="matrix(0 1 1 0 34.145 27.936)" fill="#BEC2FD"/><circle cx="2.328" cy="2.328" r="2.328" transform="matrix(0 1 1 0 34.145 55.874)" fill="#BEC2FD"/><circle cx="2.328" cy="2.328" r="2.328" transform="matrix(0 1 1 0 34.145 83.811)" fill="#BEC2FD"/><circle cx="2.328" cy="2.328" r="2.328" transform="matrix(0 1 1 0 34.145 111.748)" fill="#BEC2FD"/><circle cx="2.328" cy="2.328" r="2.328" transform="matrix(0 1 1 0 34.145 139.686)" fill="#BEC2FD"/><circle cx="2.328" cy="2.328" r="2.328" transform="matrix(0 1 1 0 65.187 0)" fill="#BEC2FD"/><circle cx="2.328" cy="2.328" r="2.328" transform="matrix(0 1 1 0 65.187 27.936)" fill="#BEC2FD"/><circle cx="2.328" cy="2.328" r="2.328" transform="matrix(0 1 1 0 65.187 55.874)" fill="#BEC2FD"/><circle cx="2.328" cy="2.328" r="2.328" transform="matrix(0 1 1 0 65.187 83.811)" fill="#BEC2FD"/><circle cx="2.328" cy="2.328" r="2.328" transform="matrix(0 1 1 0 65.187 111.748)" fill="#BEC2FD"/><circle cx="2.328" cy="2.328" r="2.328" transform="matrix(0 1 1 0 65.187 139.686)" fill="#BEC2FD"/><circle cx="2.328" cy="2.328" r="2.328" transform="matrix(0 1 1 0 96.228 0)" fill="#BEC2FD"/><circle cx="2.328" cy="2.328" r="2.328" transform="matrix(0 1 1 0 96.228 27.936)" fill="#BEC2FD"/><circle cx="2.328" cy="2.328" r="2.328" transform="matrix(0 1 1 0 96.228 55.874)" fill="#BEC2FD"/><circle cx="2.328" cy="2.328" r="2.328" transform="matrix(0 1 1 0 96.228 83.811)" fill="#BEC2FD"/><circle cx="2.328" cy="2.328" r="2.328" transform="matrix(0 1 1 0 96.228 111.749)" fill="#BEC2FD"/><circle cx="2.328" cy="2.328" r="2.328" transform="matrix(0 1 1 0 96.228 139.686)" fill="#BEC2FD"/><circle cx="2.328" cy="2.328" r="2.328" transform="matrix(0 1 1 0 127.269 0)" fill="#BEC2FD"/><circle cx="2.328" cy="2.328" r="2.328" transform="matrix(0 1 1 0 127.269 27.936)" fill="#BEC2FD"/><circle cx="2.328" cy="2.328" r="2.328" transform="matrix(0 1 1 0 127.269 55.874)" fill="#BEC2FD"/><circle cx="2.328" cy="2.328" r="2.328" transform="matrix(0 1 1 0 127.269 83.811)" fill="#BEC2FD"/><circle cx="2.328" cy="2.328" r="2.328" transform="matrix(0 1 1 0 127.269 111.749)" fill="#BEC2FD"/><circle cx="2.328" cy="2.328" r="2.328" transform="matrix(0 1 1 0 127.269 139.686)" fill="#BEC2FD"/><circle cx="2.328" cy="2.328" r="2.328" transform="matrix(0 1 1 0 158.311 0)" fill="#BEC2FD"/><circle cx="2.328" cy="2.328" r="2.328" transform="matrix(0 1 1 0 158.311 27.938)" fill="#BEC2FD"/><circle cx="2.328" cy="2.328" r="2.328" transform="matrix(0 1 1 0 158.311 55.874)" fill="#BEC2FD"/><circle cx="2.328" cy="2.328" r="2.328" transform="matrix(0 1 1 0 158.311 83.811)" fill="#BEC2FD"/><circle cx="2.328" cy="2.328" r="2.328" transform="matrix(0 1 1 0 158.311 111.749)" fill="#BEC2FD"/><circle cx="2.328" cy="2.328" r="2.328" transform="matrix(0 1 1 0 158.311 139.686)" fill="#BEC2FD"/><circle cx="2.328" cy="2.328" r="2.328" transform="matrix(0 1 1 0 189.352 0)" fill="#BEC2FD"/><circle cx="2.328" cy="2.328" r="2.328" transform="matrix(0 1 1 0 189.352 27.936)" fill="#BEC2FD"/><circle cx="2.328" cy="2.328" r="2.328" transform="matrix(0 1 1 0 189.352 55.874)" fill="#BEC2FD"/><circle cx="2.328" cy="2.328" r="2.328" transform="matrix(0 1 1 0 189.352 83.811)" fill="#BEC2FD"/><circle cx="2.328" cy="2.328" r="2.328" transform="matrix(0 1 1 0 189.352 111.748)" fill="#BEC2FD"/><circle cx="2.328" cy="2.328" r="2.328" transform="matrix(0 1 1 0 189.352 139.686)" fill="#BEC2FD"/><circle cx="2.328" cy="2.328" r="2.328" transform="matrix(0 1 1 0 220.393 0)" fill="#BEC2FD"/><circle cx="2.328" cy="2.328" r="2.328" transform="matrix(0 1 1 0 220.393 27.936)" fill="#BEC2FD"/><circle cx="2.328" cy="2.328" r="2.328" transform="matrix(0 1 1 0 220.393 55.874)" fill="#BEC2FD"/><circle cx="2.328" cy="2.328" r="2.328" transform="matrix(0 1 1 0 220.393 83.811)" fill="#BEC2FD"/><circle cx="2.328" cy="2.328" r="2.328" transform="matrix(0 1 1 0 220.393 111.748)" fill="#BEC2FD"/><circle cx="2.328" cy="2.328" r="2.328" transform="matrix(0 1 1 0 220.393 139.686)" fill="#BEC2FD"/><circle cx="6.208" cy="6.208" r="6.208" transform="matrix(0 1 1 0 0 175.383)" fill="#F3DC6B"/><circle cx="3.88" cy="3.88" r="3.88" transform="matrix(0 1 1 0 63.635 83.811)" fill="#4054F9"/></svg>