<svg width="20" height="20" viewBox="0 0 20 20" fill="none" xmlns="http://www.w3.org/2000/svg">
<path d="M20 6C20 4.9 19.1 4 18 4H15.8C15.9 3.7 16 3.4 16 3C16 1.3 14.7 0 13 0C11.9 0 10.8 1.1 10 2.4C9.2 1.1 8.1 0 7 0C5.3 0 4 1.3 4 3C4 3.4 4.1 3.7 4.2 4H2C0.9 4 0 4.9 0 6V10H1V18C1 19.1 1.9 20 3 20H17C18.1 20 19 19.1 19 18V10H20V6ZM18 8H11V6H18V8ZM13 2C13.6 2 14 2.4 14 3C14 3.6 13.6 4 13 4H11.4C11.8 3.1 12.6 2.1 13 2ZM6 3C6 2.4 6.4 2 6.9 2C7.3 2.1 8.1 3.2 8.6 4H7C6.4 4 6 3.6 6 3ZM2 6H9V8H2V6ZM3 10H9V18H3V10ZM17 18H11V10H17V18Z" fill="#725ED8"/>
</svg>
