<svg width="70" height="70" fill="none" xmlns="http://www.w3.org/2000/svg"><path d="M63.636 27.204V12.727c0-2.705-2.068-4.773-4.772-4.773-2.387 0-4.296 1.75-4.773 4.137-6.364 6.681-11.614 10.022-17.818 11.295A1.65 1.65 0 0 0 35 25.296a1.65 1.65 0 0 0 1.91 1.272c6.045-1.432 11.295-4.296 17.181-10.023v36.75c-5.886-5.568-11.136-8.59-17.182-9.864-2.068-.318-4.295-.477-6.682-.477-.954 0-1.59.637-1.59 1.591v1.591H7.955V23.863h20.681v14.318c0 .955.637 1.591 1.591 1.591.955 0 1.591-.636 1.591-1.59V23.862a3.191 3.191 0 0 0-3.182-3.182H7.955a3.191 3.191 0 0 0-3.182 3.182v3.182H3.182A3.191 3.191 0 0 0 0 30.227v9.545a3.191 3.191 0 0 0 3.182 3.182h1.59v3.182a3.191 3.191 0 0 0 3.183 3.182h3.181v9.227c0 1.91 1.591 3.5 3.5 3.5 1.432 0 2.705-.955 3.182-2.227l2.705-7.319h1.75c.954 0 1.59-.636 1.59-1.59v-1.591h4.773a3.191 3.191 0 0 0 3.182-3.182c1.591 0 3.023.318 4.455.477 6.204 1.273 11.613 4.614 17.818 11.296.318 2.227 2.386 4.136 4.773 4.136 2.704 0 4.772-2.068 4.772-4.773V42.795c3.66-.796 6.364-3.977 6.364-7.796 0-3.818-2.705-7-6.364-7.795ZM4.773 39.772H3.182v-9.545h1.59v9.545Zm10.182 18.932c-.16.16-.16.16-.319.16a.342.342 0 0 1-.318-.319v-9.227h4.137l-3.5 9.386Zm45.5-30.068v28.637c0 .954-.637 1.59-1.591 1.59-.955 0-1.591-.636-1.591-1.59V12.726c0-.955.636-1.591 1.59-1.591.955 0 1.592.636 1.592 1.59v15.91Zm3.181 10.818v-9.068c1.91.636 3.182 2.386 3.182 4.454 0 2.069-1.273 3.978-3.182 4.614Z" fill="#4054F9"/><path d="M22.273 38.182h-7.955c-.954 0-1.59.636-1.59 1.59 0 .955.636 1.591 1.59 1.591h7.955c.954 0 1.59-.636 1.59-1.59 0-.955-.636-1.591-1.59-1.591ZM22.273 33.408h-7.955c-.954 0-1.59.637-1.59 1.591s.636 1.59 1.59 1.59h7.955c.954 0 1.59-.636 1.59-1.59 0-.954-.636-1.59-1.59-1.59ZM22.273 28.636h-7.955c-.954 0-1.59.636-1.59 1.59 0 .955.636 1.591 1.59 1.591h7.955c.954 0 1.59-.636 1.59-1.59 0-.955-.636-1.591-1.59-1.591Z" fill="#4054F9"/></svg>