<svg width="70" height="70" fill="none" xmlns="http://www.w3.org/2000/svg"><path d="M66.818 38.182c-.954 0-1.59.636-1.59 1.59v20.682c0 .955-.637 1.591-1.591 1.591H6.363c-.955 0-1.591-.636-1.591-1.59V39.772c0-.955-.637-1.591-1.591-1.591-.955 0-1.59.636-1.59 1.59v20.682c0 2.705 2.067 4.773 4.772 4.773h57.273c2.704 0 4.772-2.068 4.772-4.773V39.773c0-.955-.636-1.591-1.59-1.591Z" fill="#4054F9"/><path d="M65.227 15.91H4.773C2.068 15.91 0 17.976 0 20.681v10.182C0 33.09 1.59 35 3.66 35.477l24.976 5.569v5.09c0 .955.637 1.591 1.591 1.591h9.546c.954 0 1.59-.636 1.59-1.59v-5.092l24.978-5.568C68.409 35 70 33.091 70 30.864V20.682c0-2.705-2.068-4.773-4.773-4.773ZM38.182 44.545h-6.364v-6.364h6.364v6.363Zm28.636-13.682c0 .795-.477 1.431-1.273 1.59l-24.181 5.41V36.59c0-.955-.637-1.591-1.591-1.591h-9.546c-.954 0-1.59.636-1.59 1.59v1.274l-24.182-5.41c-.796-.159-1.273-.795-1.273-1.59V20.682c0-.955.636-1.591 1.59-1.591h60.455c.955 0 1.591.636 1.591 1.59v10.183ZM42.955 4.772h-15.91c-2.704 0-4.772 2.069-4.772 4.773v1.591c0 .955.636 1.59 1.59 1.59.955 0 1.591-.636 1.591-1.59v-1.59c0-.955.637-1.592 1.591-1.592h15.91c.954 0 1.59.637 1.59 1.591v1.591c0 .955.637 1.59 1.591 1.59.955 0 1.591-.636 1.591-1.59v-1.59c0-2.705-2.068-4.774-4.772-4.774Z" fill="#4054F9"/></svg>