<svg width="175" height="357" fill="none" xmlns="http://www.w3.org/2000/svg"><circle cx="4.648" cy="93.898" r="2.789" fill="#BEC2FD"/><circle cx="38.117" cy="93.898" r="2.789" fill="#BEC2FD"/><circle cx="71.586" cy="93.898" r="2.789" fill="#BEC2FD"/><circle cx="105.055" cy="93.898" r="2.789" fill="#BEC2FD"/><circle cx="138.523" cy="93.898" r="2.789" fill="#BEC2FD"/><circle cx="171.992" cy="93.898" r="2.789" fill="#BEC2FD"/><circle cx="4.648" cy="131.086" r="2.789" fill="#BEC2FD"/><circle cx="38.117" cy="131.086" r="2.789" fill="#BEC2FD"/><circle cx="71.586" cy="131.086" r="2.789" fill="#BEC2FD"/><circle cx="105.055" cy="131.086" r="2.789" fill="#BEC2FD"/><circle cx="138.523" cy="131.086" r="2.789" fill="#BEC2FD"/><circle cx="171.992" cy="131.086" r="2.789" fill="#BEC2FD"/><circle cx="4.648" cy="168.273" r="2.789" fill="#BEC2FD"/><circle cx="38.117" cy="168.273" r="2.789" fill="#BEC2FD"/><circle cx="71.586" cy="168.273" r="2.789" fill="#BEC2FD"/><circle cx="105.055" cy="168.273" r="2.789" fill="#BEC2FD"/><circle cx="138.523" cy="168.273" r="2.789" fill="#BEC2FD"/><circle cx="171.992" cy="168.273" r="2.789" fill="#BEC2FD"/><circle cx="4.648" cy="205.461" r="2.789" fill="#BEC2FD"/><circle cx="38.117" cy="205.461" r="2.789" fill="#BEC2FD"/><circle cx="71.586" cy="205.461" r="2.789" fill="#BEC2FD"/><circle cx="105.055" cy="205.461" r="2.789" fill="#BEC2FD"/><circle cx="138.523" cy="205.461" r="2.789" fill="#BEC2FD"/><circle cx="171.992" cy="205.461" r="2.789" fill="#BEC2FD"/><circle cx="4.648" cy="242.648" r="2.789" fill="#BEC2FD"/><circle cx="38.117" cy="242.648" r="2.789" fill="#BEC2FD"/><circle cx="71.586" cy="242.648" r="2.789" fill="#BEC2FD"/><circle cx="105.055" cy="242.648" r="2.789" fill="#BEC2FD"/><circle cx="138.523" cy="242.648" r="2.789" fill="#BEC2FD"/><circle cx="171.992" cy="242.648" r="2.789" fill="#BEC2FD"/><circle cx="4.648" cy="279.836" r="2.789" fill="#BEC2FD"/><circle cx="38.117" cy="279.836" r="2.789" fill="#BEC2FD"/><circle cx="71.586" cy="279.836" r="2.789" fill="#BEC2FD"/><circle cx="105.055" cy="279.836" r="2.789" fill="#BEC2FD"/><circle cx="138.523" cy="279.836" r="2.789" fill="#BEC2FD"/><circle cx="171.992" cy="279.836" r="2.789" fill="#BEC2FD"/><circle cx="4.648" cy="317.023" r="2.789" fill="#BEC2FD"/><circle cx="38.117" cy="317.023" r="2.789" fill="#BEC2FD"/><circle cx="71.586" cy="317.023" r="2.789" fill="#BEC2FD"/><circle cx="105.055" cy="317.023" r="2.789" fill="#BEC2FD"/><circle cx="138.523" cy="317.023" r="2.789" fill="#BEC2FD"/><circle cx="171.992" cy="317.023" r="2.789" fill="#BEC2FD"/><circle cx="4.648" cy="354.211" r="2.789" fill="#BEC2FD"/><circle cx="38.117" cy="354.211" r="2.789" fill="#BEC2FD"/><circle cx="71.586" cy="354.211" r="2.789" fill="#BEC2FD"/><circle cx="105.055" cy="354.211" r="2.789" fill="#BEC2FD"/><circle cx="138.523" cy="354.211" r="2.789" fill="#BEC2FD"/><circle cx="171.992" cy="354.211" r="2.789" fill="#BEC2FD"/><circle cx="39.047" cy="7.438" r="7.438" fill="#F3DC6B"/><circle cx="4.648" cy="51.133" r="4.648" fill="#4054F9"/></svg>