<svg width="70" height="70" fill="none" xmlns="http://www.w3.org/2000/svg"><path d="M34.538 69c-.471 0-.913-.235-1.174-.625l-9.652-14.367a1.415 1.415 0 0 1-.212-1.069l5.06-25.044 2.773.56-4.943 24.464 8.148 12.13 8.147-12.13-4.943-24.464a1.418 1.418 0 0 1 .147-.963l1.98-3.598 2.478 1.364-1.73 3.144 4.956 24.536c.075.37-.001.755-.212 1.069L35.71 68.374a1.41 1.41 0 0 1-1.172.626Z" fill="#4054F9"/><path d="M34.537 29.588h-4.592c-.5 0-.962-.264-1.216-.693l-1.748-2.948a1.414 1.414 0 1 1 2.434-1.441l1.336 2.255h3.786a1.415 1.415 0 0 1 0 2.828ZM34.536 69a1.414 1.414 0 0 1-1.172-2.203l9.65-14.367a1.415 1.415 0 0 1 2.349 1.578L35.71 68.376a1.415 1.415 0 0 1-1.175.625ZM29.482 60.57a1.413 1.413 0 0 1-1.174-2.2l7.98-11.935a1.413 1.413 0 1 1 2.351 1.573l-7.98 11.935c-.272.407-.72.628-1.177.628ZM31.921 44.675a1.415 1.415 0 0 1-1.178-2.195l7.551-11.426a1.414 1.414 0 1 1 2.36 1.56l-7.55 11.427a1.413 1.413 0 0 1-1.183.634Z" fill="#4054F9"/><path d="M24.767 29.6a1.416 1.416 0 0 1-1.208-.677l-10.693-17.52a1.412 1.412 0 0 1 .22-1.75l6.417-6.251a1.416 1.416 0 0 1 2.113.158c.908.9 9.015 7.704 14.008 11.86a1.413 1.413 0 0 1 .172 2.004l-9.952 11.68a1.42 1.42 0 0 1-1.077.496ZM15.87 10.892l9.088 14.89 7.757-9.104c-7.2-5.996-10.6-8.836-12.204-10.31l-4.641 4.524Z" fill="#4054F9"/><path d="M44.672 29.6a1.41 1.41 0 0 1-1.076-.498l-9.954-11.679a1.415 1.415 0 0 1 .173-2.004c4.992-4.157 13.1-10.96 14.007-11.86a1.417 1.417 0 0 1 2.114-.159l6.416 6.251c.472.462.563 1.187.219 1.75l-10.694 17.52a1.415 1.415 0 0 1-1.205.68Zm-7.948-12.922 7.758 9.105 9.09-14.891-4.643-4.523c-1.605 1.474-5.003 4.313-12.205 10.309Z" fill="#4054F9"/><path d="M48.951 5.829H20.489a1.415 1.415 0 0 1 0-2.829h28.46a1.414 1.414 0 0 1 .002 2.829ZM22.348 60.664h-8.29c-2.005 0-3.729-1.499-4.006-3.485L3.047 16.382c-.176-1.243 0-3.422 3.063-4.528l7.208-2.427a1.414 1.414 0 1 1 .903 2.68l-7.179 2.418c-1.332.481-1.256 1.024-1.2 1.422l7.005 40.798c.09.64.61 1.09 1.213 1.09h8.29a1.414 1.414 0 1 1-.002 2.83ZM55.38 60.664h-8.289a1.413 1.413 0 0 1-1.414-1.414c0-.782.632-1.414 1.414-1.414h8.29c.603 0 1.12-.45 1.206-1.048l7.019-40.885c.048-.354.124-.897-1.236-1.388l-7.223-2.432a1.414 1.414 0 1 1 .904-2.68l7.25 2.442c3.093 1.115 3.27 3.294 3.1 4.493l-7.02 40.885c-.273 1.944-1.995 3.441-4 3.441Z" fill="#4054F9"/></svg>