<svg width="175" height="357" viewBox="0 0 175 357" fill="none" xmlns="http://www.w3.org/2000/svg">
<circle cx="4.64844" cy="93.8984" r="2.78906" fill="#BEC2FD"/>
<circle cx="38.1172" cy="93.8984" r="2.78906" fill="#BEC2FD"/>
<circle cx="71.5859" cy="93.8984" r="2.78906" fill="#BEC2FD"/>
<circle cx="105.055" cy="93.8984" r="2.78906" fill="#BEC2FD"/>
<circle cx="138.523" cy="93.8984" r="2.78906" fill="#BEC2FD"/>
<circle cx="171.992" cy="93.8984" r="2.78906" fill="#BEC2FD"/>
<circle cx="4.64844" cy="131.086" r="2.78906" fill="#BEC2FD"/>
<circle cx="38.1172" cy="131.086" r="2.78906" fill="#BEC2FD"/>
<circle cx="71.5859" cy="131.086" r="2.78906" fill="#BEC2FD"/>
<circle cx="105.055" cy="131.086" r="2.78906" fill="#BEC2FD"/>
<circle cx="138.523" cy="131.086" r="2.78906" fill="#BEC2FD"/>
<circle cx="171.992" cy="131.086" r="2.78906" fill="#BEC2FD"/>
<circle cx="4.64844" cy="168.273" r="2.78906" fill="#BEC2FD"/>
<circle cx="38.1172" cy="168.273" r="2.78906" fill="#BEC2FD"/>
<circle cx="71.5859" cy="168.273" r="2.78906" fill="#BEC2FD"/>
<circle cx="105.055" cy="168.273" r="2.78906" fill="#BEC2FD"/>
<circle cx="138.523" cy="168.273" r="2.78906" fill="#BEC2FD"/>
<circle cx="171.992" cy="168.273" r="2.78906" fill="#BEC2FD"/>
<circle cx="4.64844" cy="205.461" r="2.78906" fill="#BEC2FD"/>
<circle cx="38.1172" cy="205.461" r="2.78906" fill="#BEC2FD"/>
<circle cx="71.5859" cy="205.461" r="2.78906" fill="#BEC2FD"/>
<circle cx="105.055" cy="205.461" r="2.78906" fill="#BEC2FD"/>
<circle cx="138.523" cy="205.461" r="2.78906" fill="#BEC2FD"/>
<circle cx="171.992" cy="205.461" r="2.78906" fill="#BEC2FD"/>
<circle cx="4.64844" cy="242.648" r="2.78906" fill="#BEC2FD"/>
<circle cx="38.1172" cy="242.648" r="2.78906" fill="#BEC2FD"/>
<circle cx="71.5859" cy="242.648" r="2.78906" fill="#BEC2FD"/>
<circle cx="105.055" cy="242.648" r="2.78906" fill="#BEC2FD"/>
<circle cx="138.523" cy="242.648" r="2.78906" fill="#BEC2FD"/>
<circle cx="171.992" cy="242.648" r="2.78906" fill="#BEC2FD"/>
<circle cx="4.64844" cy="279.836" r="2.78906" fill="#BEC2FD"/>
<circle cx="38.1172" cy="279.836" r="2.78906" fill="#BEC2FD"/>
<circle cx="71.5859" cy="279.836" r="2.78906" fill="#BEC2FD"/>
<circle cx="105.055" cy="279.836" r="2.78906" fill="#BEC2FD"/>
<circle cx="138.523" cy="279.836" r="2.78906" fill="#BEC2FD"/>
<circle cx="171.992" cy="279.836" r="2.78906" fill="#BEC2FD"/>
<circle cx="4.64844" cy="317.023" r="2.78906" fill="#BEC2FD"/>
<circle cx="38.1172" cy="317.023" r="2.78906" fill="#BEC2FD"/>
<circle cx="71.5859" cy="317.023" r="2.78906" fill="#BEC2FD"/>
<circle cx="105.055" cy="317.023" r="2.78906" fill="#BEC2FD"/>
<circle cx="138.523" cy="317.023" r="2.78906" fill="#BEC2FD"/>
<circle cx="171.992" cy="317.023" r="2.78906" fill="#BEC2FD"/>
<circle cx="4.64844" cy="354.211" r="2.78906" fill="#BEC2FD"/>
<circle cx="38.1172" cy="354.211" r="2.78906" fill="#BEC2FD"/>
<circle cx="71.5859" cy="354.211" r="2.78906" fill="#BEC2FD"/>
<circle cx="105.055" cy="354.211" r="2.78906" fill="#BEC2FD"/>
<circle cx="138.523" cy="354.211" r="2.78906" fill="#BEC2FD"/>
<circle cx="171.992" cy="354.211" r="2.78906" fill="#BEC2FD"/>
<circle cx="39.0469" cy="7.4375" r="7.4375" fill="#F3DC6B"/>
<circle cx="4.64844" cy="51.1328" r="4.64844" fill="#4054F9"/>
</svg>
