<svg width="70" height="70" fill="none" xmlns="http://www.w3.org/2000/svg"><g clip-path="url(#a)" fill="#4054F9"><path d="M15.91 9.545a1.59 1.59 0 1 0 0-3.182 1.59 1.59 0 0 0 0 3.182ZM36.59 4.772H33.41c-2.705 0-4.773 2.069-4.773 4.773v4.773c0 3.5 2.864 6.364 6.364 6.364s6.363-2.864 6.363-6.364V9.545c0-2.704-2.068-4.773-4.772-4.773Zm1.592 9.546A3.191 3.191 0 0 1 35 17.5a3.191 3.191 0 0 1-3.182-3.182V9.545c0-.954.637-1.59 1.59-1.59h3.183c.954 0 1.59.636 1.59 1.59v4.773ZM39.773 23.863h-9.546c-4.454 0-7.954 3.5-7.954 7.955 0 .954.636 1.59 1.59 1.59.955 0 1.591-.636 1.591-1.59 0-2.705 2.069-4.773 4.773-4.773h9.546c2.704 0 4.772 2.068 4.772 4.773 0 .954.637 1.59 1.591 1.59.955 0 1.591-.636 1.591-1.59 0-4.455-3.5-7.955-7.954-7.955Z"/><path d="M60.455 0H9.545c-.954 0-1.59.636-1.59 1.59v35c0 .955.636 1.592 1.59 1.592h50.91c.954 0 1.59-.637 1.59-1.591v-35C62.045.636 61.41 0 60.455 0Zm-1.591 35H11.136V3.182h47.728V35ZM36.59 41.363H33.41c-2.705 0-4.773 2.068-4.773 4.773v4.773c0 3.5 2.864 6.363 6.364 6.363s6.363-2.863 6.363-6.363v-4.773c0-2.704-2.068-4.773-4.772-4.773Zm1.592 9.546A3.191 3.191 0 0 1 35 54.09a3.191 3.191 0 0 1-3.182-3.182v-4.773c0-.954.637-1.59 1.59-1.59h3.183c.954 0 1.59.636 1.59 1.59v4.773ZM38.182 60.454h-6.364c-4.454 0-7.954 3.5-7.954 7.955 0 .954.636 1.59 1.59 1.59h12.728c.954 0 1.59-.636 1.59-1.59 0-.955-.636-1.591-1.59-1.591H27.364c.636-1.91 2.386-3.182 4.454-3.182h6.364c2.704 0 4.773 2.068 4.773 4.773 0 .954.636 1.59 1.59 1.59.955 0 1.591-.636 1.591-1.59 0-4.455-3.5-7.955-7.954-7.955ZM60.455 41.363h-3.182c-2.705 0-4.773 2.068-4.773 4.773v4.773c0 3.5 2.864 6.363 6.364 6.363s6.363-2.863 6.363-6.363v-4.773c0-2.704-2.068-4.773-4.772-4.773Zm1.59 9.546a3.191 3.191 0 0 1-3.181 3.182 3.191 3.191 0 0 1-3.182-3.182v-4.773c0-.954.636-1.59 1.59-1.59h3.182c.955 0 1.591.636 1.591 1.59v4.773ZM62.045 60.454h-6.363c-4.455 0-7.955 3.5-7.955 7.955 0 .954.637 1.59 1.591 1.59h12.727c.955 0 1.591-.636 1.591-1.59 0-.955-.636-1.591-1.59-1.591H51.226c.637-1.91 2.387-3.182 4.455-3.182h6.363c2.705 0 4.773 2.068 4.773 4.773 0 .954.637 1.59 1.591 1.59S70 69.364 70 68.41c0-4.455-3.5-7.955-7.955-7.955ZM14.318 41.363h-3.181c-2.705 0-4.773 2.068-4.773 4.773v4.773c0 3.5 2.863 6.363 6.363 6.363 3.5 0 6.364-2.863 6.364-6.363v-4.773c0-2.704-2.068-4.773-4.773-4.773Zm1.591 9.546a3.191 3.191 0 0 1-3.182 3.182 3.191 3.191 0 0 1-3.182-3.182v-4.773c0-.954.637-1.59 1.591-1.59h3.182c.955 0 1.591.636 1.591 1.59v4.773ZM14.318 60.454H7.955C3.5 60.454 0 63.954 0 68.41c0 .954.636 1.59 1.59 1.59h12.728c.955 0 1.591-.636 1.591-1.59 0-.955-.636-1.591-1.59-1.591H3.5c.636-1.91 2.386-3.182 4.455-3.182h6.363c2.705 0 4.773 2.068 4.773 4.773 0 .954.636 1.59 1.59 1.59.955 0 1.592-.636 1.592-1.59 0-4.455-3.5-7.955-7.955-7.955Z"/></g><defs><clipPath id="a"><path fill="#fff" d="M0 0h70v70H0z"/></clipPath></defs></svg>