<svg width="100" height="20" fill="none" xmlns="http://www.w3.org/2000/svg"><path d="M6.36 5.08c1 0 1.907.233 2.72.7a4.851 4.851 0 0 1 1.94 1.94c.467.827.7 1.793.7 2.9s-.233 2.08-.7 2.92a5.024 5.024 0 0 1-1.94 1.94c-.813.453-1.72.68-2.72.68-1.373 0-2.453-.433-3.24-1.3v5.02H0V5.24h2.98v1.24c.773-.933 1.9-1.4 3.38-1.4Zm-.54 8.52c.8 0 1.453-.267 1.96-.8.52-.547.78-1.273.78-2.18 0-.907-.26-1.627-.78-2.16-.507-.547-1.16-.82-1.96-.82s-1.46.273-1.98.82c-.507.533-.76 1.253-.76 2.16 0 .907.253 1.633.76 2.18.52.533 1.18.8 1.98.8ZM16.789 6.66c.373-.52.873-.913 1.5-1.18.64-.267 1.373-.4 2.2-.4v2.88c-.347-.027-.58-.04-.7-.04-.894 0-1.594.253-2.1.76-.507.493-.76 1.24-.76 2.24V16h-3.12V5.24h2.98v1.42ZM32.786 10.66c0 .04-.02.32-.06.84h-8.14a2.535 2.535 0 0 0 1.04 1.58c.547.387 1.227.58 2.04.58.56 0 1.053-.08 1.48-.24.44-.173.847-.44 1.22-.8l1.66 1.8c-1.013 1.16-2.493 1.74-4.44 1.74-1.213 0-2.287-.233-3.22-.7-.933-.48-1.653-1.14-2.16-1.98-.507-.84-.76-1.793-.76-2.86 0-1.053.247-2 .74-2.84a5.25 5.25 0 0 1 2.06-1.98c.88-.48 1.86-.72 2.94-.72 1.053 0 2.007.227 2.86.68a4.881 4.881 0 0 1 2 1.96c.493.84.74 1.82.74 2.94Zm-5.58-3.22c-.707 0-1.3.2-1.78.6-.48.4-.773.947-.88 1.64h5.3c-.107-.68-.4-1.22-.88-1.62-.48-.413-1.067-.62-1.76-.62ZM38.483 16.16c-.893 0-1.766-.107-2.62-.32-.853-.227-1.533-.507-2.04-.84l1.04-2.24c.48.307 1.06.56 1.74.76.68.187 1.347.28 2 .28 1.32 0 1.98-.327 1.98-.98 0-.307-.18-.527-.54-.66-.36-.133-.913-.247-1.66-.34-.88-.133-1.606-.287-2.18-.46a3.451 3.451 0 0 1-1.5-.92c-.413-.44-.62-1.067-.62-1.88 0-.68.194-1.28.58-1.8.4-.533.974-.947 1.72-1.24.76-.293 1.654-.44 2.68-.44.76 0 1.514.087 2.26.26.76.16 1.387.387 1.88.68l-1.04 2.22a6.209 6.209 0 0 0-3.1-.8c-.666 0-1.166.093-1.5.28-.333.187-.5.427-.5.72 0 .333.18.567.54.7.36.133.934.26 1.72.38.88.147 1.6.307 2.16.48.56.16 1.047.46 1.46.9.414.44.62 1.053.62 1.84 0 .667-.2 1.26-.6 1.78-.4.52-.986.927-1.76 1.22-.76.28-1.666.42-2.72.42ZM49.108 16.16c-.893 0-1.766-.107-2.62-.32-.853-.227-1.533-.507-2.04-.84l1.04-2.24c.48.307 1.06.56 1.74.76.68.187 1.347.28 2 .28 1.32 0 1.98-.327 1.98-.98 0-.307-.18-.527-.54-.66-.36-.133-.913-.247-1.66-.34-.88-.133-1.606-.287-2.18-.46a3.451 3.451 0 0 1-1.5-.92c-.413-.44-.62-1.067-.62-1.88 0-.68.194-1.28.58-1.8.4-.533.974-.947 1.72-1.24.76-.293 1.654-.44 2.68-.44.76 0 1.514.087 2.26.26.76.16 1.387.387 1.88.68l-1.04 2.22a6.209 6.209 0 0 0-3.1-.8c-.666 0-1.166.093-1.5.28-.333.187-.5.427-.5.72 0 .333.18.567.54.7.36.133.934.26 1.72.38.88.147 1.6.307 2.16.48.56.16 1.047.46 1.46.9.414.44.62 1.053.62 1.84 0 .667-.2 1.26-.6 1.78-.4.52-.986.927-1.76 1.22-.76.28-1.666.42-2.72.42ZM59.533 5.48h2.76v2.4h-2.68V16h-3.12V7.88h-1.66v-2.4h1.66V5c0-1.227.36-2.2 1.08-2.92.734-.72 1.76-1.08 3.08-1.08.467 0 .907.053 1.32.16.427.093.78.233 1.06.42l-.82 2.26c-.36-.253-.78-.38-1.26-.38-.946 0-1.42.52-1.42 1.56v.46ZM74.25 10.66c0 .04-.02.32-.06.84h-8.14a2.536 2.536 0 0 0 1.04 1.58c.548.387 1.228.58 2.04.58.56 0 1.054-.08 1.48-.24.44-.173.848-.44 1.22-.8l1.66 1.8c-1.012 1.16-2.492 1.74-4.44 1.74-1.212 0-2.286-.233-3.22-.7-.932-.48-1.652-1.14-2.16-1.98-.506-.84-.76-1.793-.76-2.86 0-1.053.248-2 .74-2.84a5.251 5.251 0 0 1 2.06-1.98c.88-.48 1.86-.72 2.94-.72 1.054 0 2.008.227 2.86.68a4.88 4.88 0 0 1 2 1.96c.494.84.74 1.82.74 2.94Zm-5.58-3.22c-.706 0-1.3.2-1.78.6-.48.4-.772.947-.88 1.64h5.3c-.106-.68-.4-1.22-.88-1.62-.48-.413-1.066-.62-1.76-.62ZM86.868 10.66c0 .04-.02.32-.06.84h-8.14a2.536 2.536 0 0 0 1.04 1.58c.547.387 1.227.58 2.04.58.56 0 1.053-.08 1.48-.24.44-.173.847-.44 1.22-.8l1.66 1.8c-1.013 1.16-2.493 1.74-4.44 1.74-1.213 0-2.287-.233-3.22-.7-.933-.48-1.653-1.14-2.16-1.98-.507-.84-.76-1.793-.76-2.86 0-1.053.247-2 .74-2.84a5.251 5.251 0 0 1 2.06-1.98c.88-.48 1.86-.72 2.94-.72 1.053 0 2.007.227 2.86.68a4.88 4.88 0 0 1 2 1.96c.493.84.74 1.82.74 2.94Zm-5.58-3.22c-.706 0-1.3.2-1.78.6-.48.4-.773.947-.88 1.64h5.3c-.106-.68-.4-1.22-.88-1.62-.48-.413-1.067-.62-1.76-.62ZM99.905 1.16V16h-2.98v-1.24c-.773.933-1.893 1.4-3.36 1.4-1.013 0-1.933-.227-2.76-.68a4.888 4.888 0 0 1-1.92-1.94c-.466-.84-.7-1.813-.7-2.92s.234-2.08.7-2.92a4.888 4.888 0 0 1 1.92-1.94c.827-.453 1.747-.68 2.76-.68 1.374 0 2.447.433 3.22 1.3V1.16h3.12Zm-5.8 12.44c.787 0 1.44-.267 1.96-.8.52-.547.78-1.273.78-2.18 0-.907-.26-1.627-.78-2.16-.52-.547-1.173-.82-1.96-.82-.8 0-1.46.273-1.98.82-.52.533-.78 1.253-.78 2.16 0 .907.26 1.633.78 2.18.52.533 1.18.8 1.98.8Z" fill="#262626"/></svg>