<svg width="18" height="18" fill="none" xmlns="http://www.w3.org/2000/svg"><path d="M16.418 2.672H1.582C.708 2.672 0 3.384 0 4.254v9.492c0 .875.713 1.582 1.582 1.582h14.836c.867 0 1.582-.704 1.582-1.582V4.254c0-.868-.705-1.582-1.582-1.582Zm-.222 1.055L10.12 9.772A1.572 1.572 0 0 1 9 10.236c-.423 0-.82-.165-1.12-.465L1.804 3.727h14.392ZM1.055 13.53V4.47l4.557 4.534-4.557 4.528Zm.75.742L6.36 9.747l.776.771A2.62 2.62 0 0 0 9 11.29c.704 0 1.366-.274 1.864-.771l.776-.772 4.556 4.526H1.804Zm15.14-.742-4.557-4.528 4.557-4.534v9.062Z" fill="#3B3B3B"/></svg>