<svg width="18" height="18" fill="none" xmlns="http://www.w3.org/2000/svg"><g clip-path="url(#a)" fill="#3B3B3B"><path d="M14.226 11.15c-.369-.384-.814-.59-1.285-.59-.467 0-.915.202-1.299.586l-1.2 1.197-.293-.152a4.821 4.821 0 0 1-.376-.202c-1.124-.714-2.146-1.645-3.127-2.849-.474-.6-.794-1.105-1.025-1.618.311-.285.6-.582.881-.867.106-.106.213-.216.32-.322.797-.798.797-1.832 0-2.63L5.783 2.668c-.118-.118-.24-.24-.353-.361a17.946 17.946 0 0 0-.714-.707c-.369-.365-.81-.558-1.273-.558-.464 0-.912.193-1.292.558l-.007.008L.853 2.91a2.78 2.78 0 0 0-.824 1.766c-.092 1.11.235 2.143.486 2.82.615 1.66 1.535 3.198 2.906 4.847a17.879 17.879 0 0 0 5.953 4.661c.874.414 2.04.904 3.343.988a5.2 5.2 0 0 0 .24.007c.877 0 1.614-.315 2.192-.942.004-.007.011-.011.015-.019.197-.24.425-.456.665-.687.163-.156.33-.32.494-.49.376-.392.573-.848.573-1.315 0-.471-.201-.923-.585-1.303l-2.085-2.093Zm1.36 4c-.004 0-.004.004 0 0-.149.16-.3.304-.464.464a9.987 9.987 0 0 0-.733.76c-.384.41-.836.604-1.429.604-.057 0-.117 0-.174-.004-1.129-.073-2.177-.513-2.964-.89a16.875 16.875 0 0 1-5.607-4.391C2.92 10.132 2.053 8.688 1.48 7.138c-.354-.946-.483-1.683-.426-2.378.038-.445.21-.813.525-1.129l1.295-1.295c.186-.175.384-.27.577-.27.24 0 .434.145.555.266l.012.012c.231.216.452.44.683.68.118.121.24.243.361.368L6.1 4.43c.403.403.403.775 0 1.178-.11.11-.216.22-.326.327-.32.326-.623.63-.954.927-.007.007-.015.011-.019.019-.327.326-.266.645-.197.862l.011.034c.27.654.65 1.27 1.227 2.002l.004.004c1.048 1.292 2.154 2.299 3.373 3.07.156.098.316.178.468.254.136.069.266.133.376.202.015.007.03.019.045.026.13.065.251.095.377.095a.812.812 0 0 0 .577-.262l1.3-1.3c.128-.128.333-.284.573-.284.235 0 .43.148.547.277l.008.008 2.093 2.093c.391.387.391.786.004 1.19ZM9.728 4.282c.995.167 1.9.638 2.62 1.36a4.842 4.842 0 0 1 1.36 2.621.51.51 0 0 0 .506.426c.03 0 .057-.004.088-.008a.513.513 0 0 0 .421-.592 5.86 5.86 0 0 0-1.645-3.173 5.86 5.86 0 0 0-3.172-1.644.516.516 0 0 0-.593.417.507.507 0 0 0 .415.593ZM17.98 7.94a9.64 9.64 0 0 0-2.71-5.223 9.64 9.64 0 0 0-5.223-2.71.511.511 0 1 0-.167 1.011c1.77.3 3.385 1.14 4.669 2.42a8.606 8.606 0 0 1 2.42 4.67.51.51 0 0 0 .505.425c.03 0 .057-.004.087-.008a.503.503 0 0 0 .418-.585Z"/></g><defs><clipPath id="a"><path fill="#fff" d="M0 0h18v18H0z"/></clipPath></defs></svg>