<svg width="18" height="18" viewBox="0 0 18 18" fill="none" xmlns="http://www.w3.org/2000/svg">
<g clip-path="url(#clip0_420_17225)">
<path d="M14.2255 11.1497C13.857 10.766 13.4125 10.5609 12.9415 10.5609C12.4742 10.5609 12.0259 10.7622 11.6422 11.1459L10.4417 12.3426C10.3429 12.2895 10.2441 12.2401 10.1492 12.1907C10.0124 12.1223 9.88324 12.0577 9.77307 11.9893C8.64856 11.2751 7.62662 10.3444 6.64647 9.14006C6.17159 8.53981 5.85247 8.03454 5.62073 7.52167C5.93225 7.23675 6.22098 6.94042 6.50211 6.65549C6.60848 6.54912 6.71485 6.43895 6.82123 6.33258C7.61902 5.53478 7.61902 4.50144 6.82123 3.70365L5.78409 2.66651C5.66632 2.54874 5.54475 2.42717 5.43078 2.3056C5.20284 2.07006 4.9635 1.82693 4.71657 1.59898C4.34806 1.23428 3.90737 1.04053 3.44389 1.04053C2.98041 1.04053 2.53213 1.23428 2.15223 1.59898C2.14843 1.60278 2.14843 1.60278 2.14463 1.60658L0.85296 2.90965C0.366685 3.39593 0.0893562 3.98857 0.0285719 4.6762C-0.0626047 5.78552 0.264111 6.81885 0.514847 7.49508C1.13029 9.15526 2.04965 10.6939 3.4211 12.3426C5.08507 14.3295 7.08716 15.8985 9.37417 17.0041C10.2479 17.4181 11.4142 17.9082 12.7173 17.9918C12.7971 17.9956 12.8807 17.9994 12.9566 17.9994C13.8342 17.9994 14.5712 17.6841 15.1487 17.0572C15.1525 17.0496 15.1601 17.0458 15.1639 17.0382C15.3614 16.7989 15.5894 16.5824 15.8287 16.3506C15.9921 16.1949 16.1592 16.0315 16.3226 15.8605C16.6987 15.4692 16.8962 15.0134 16.8962 14.5461C16.8962 14.075 16.6949 13.6229 16.3112 13.243L14.2255 11.1497ZM15.5856 15.1501C15.5818 15.1501 15.5818 15.1539 15.5856 15.1501C15.4374 15.3097 15.2854 15.454 15.1221 15.6136C14.8752 15.8491 14.6244 16.0961 14.3889 16.3734C14.0052 16.7837 13.5531 16.9775 12.9604 16.9775C12.9035 16.9775 12.8427 16.9775 12.7857 16.9737C11.6574 16.9015 10.6089 16.4608 9.82245 16.0847C7.67221 15.0438 5.78409 13.5659 4.2151 11.693C2.91963 10.1316 2.05345 8.68797 1.4798 7.13797C1.12649 6.19201 0.997323 5.455 1.05431 4.75978C1.0923 4.31529 1.26325 3.94679 1.57857 3.63147L2.87404 2.336C3.06019 2.16124 3.25774 2.06627 3.45149 2.06627C3.69083 2.06627 3.88458 2.21063 4.00615 2.3322C4.00995 2.336 4.01375 2.3398 4.01755 2.34359C4.24929 2.56014 4.46963 2.78428 4.70137 3.02362C4.81914 3.14519 4.94071 3.26676 5.06228 3.39213L6.09941 4.42926C6.50211 4.83196 6.50211 5.20426 6.09941 5.60696C5.98924 5.71713 5.88287 5.8273 5.77269 5.93368C5.45358 6.26039 5.14966 6.56432 4.81914 6.86064C4.81154 6.86824 4.80394 6.87204 4.80015 6.87964C4.47343 7.20635 4.53421 7.52547 4.6026 7.74202C4.60639 7.75341 4.61019 7.76481 4.61399 7.77621C4.88372 8.42964 5.26363 9.04508 5.84108 9.7783L5.84488 9.7821C6.89341 11.0738 7.99892 12.0805 9.21841 12.8517C9.37417 12.9505 9.53373 13.0303 9.68569 13.1062C9.82245 13.1746 9.95162 13.2392 10.0618 13.3076C10.077 13.3152 10.0922 13.3266 10.1074 13.3342C10.2365 13.3988 10.3581 13.4292 10.4835 13.4292C10.7988 13.4292 10.9964 13.2316 11.0609 13.167L12.3602 11.8678C12.4894 11.7386 12.6945 11.5828 12.9339 11.5828C13.1694 11.5828 13.3631 11.731 13.4809 11.8602C13.4847 11.864 13.4847 11.864 13.4885 11.8678L15.5818 13.961C15.9731 14.3485 15.9731 14.7474 15.5856 15.1501Z" fill="#3B3B3B"/>
<path d="M9.72757 4.28205C10.7229 4.44921 11.6271 4.92029 12.3489 5.6421C13.0707 6.36392 13.538 7.26809 13.7089 8.26343C13.7507 8.51417 13.9673 8.68892 14.2142 8.68892C14.2446 8.68892 14.2712 8.68512 14.3016 8.68132C14.5827 8.63573 14.7689 8.3698 14.7233 8.08868C14.5181 6.88439 13.9483 5.78647 13.0783 4.91649C12.2083 4.04652 11.1104 3.47666 9.90613 3.27151C9.625 3.22593 9.36287 3.41208 9.31348 3.68941C9.2641 3.96674 9.44645 4.23647 9.72757 4.28205Z" fill="#3B3B3B"/>
<path d="M17.9792 7.94018C17.6411 5.95709 16.7066 4.15255 15.2705 2.71652C13.8345 1.28049 12.03 0.345932 10.0469 0.00781895C9.76955 -0.0415683 9.50742 0.148383 9.45803 0.425712C9.41245 0.706839 9.5986 0.968972 9.87973 1.01836C11.6501 1.31848 13.2647 2.15807 14.5487 3.43834C15.8328 4.72241 16.6686 6.33699 16.9687 8.10734C17.0105 8.35807 17.227 8.53283 17.474 8.53283C17.5044 8.53283 17.531 8.52903 17.5614 8.52523C17.8387 8.48344 18.0286 8.21751 17.9792 7.94018Z" fill="#3B3B3B"/>
</g>
<defs>
<clipPath id="clip0_420_17225">
<rect width="18" height="18" fill="white"/>
</clipPath>
</defs>
</svg>
