<svg width="161" height="79" viewBox="0 0 161 79" fill="none" xmlns="http://www.w3.org/2000/svg">
<circle cx="42.3014" cy="76.6449" r="1.25648" transform="rotate(-90 42.3014 76.6449)" fill="#BEC2FD"/>
<circle cx="42.3014" cy="61.5677" r="1.25648" transform="rotate(-90 42.3014 61.5677)" fill="#BEC2FD"/>
<circle cx="42.3014" cy="46.4896" r="1.25648" transform="rotate(-90 42.3014 46.4896)" fill="#BEC2FD"/>
<circle cx="42.3019" cy="31.4115" r="1.25648" transform="rotate(-90 42.3019 31.4115)" fill="#BEC2FD"/>
<circle cx="42.3019" cy="16.3343" r="1.25648" transform="rotate(-90 42.3019 16.3343)" fill="#BEC2FD"/>
<circle cx="42.3019" cy="1.25621" r="1.25648" transform="rotate(-90 42.3019 1.25621)" fill="#BEC2FD"/>
<circle cx="59.0548" cy="76.6449" r="1.25648" transform="rotate(-90 59.0548 76.6449)" fill="#BEC2FD"/>
<circle cx="59.0548" cy="61.5677" r="1.25648" transform="rotate(-90 59.0548 61.5677)" fill="#BEC2FD"/>
<circle cx="59.0548" cy="46.4896" r="1.25648" transform="rotate(-90 59.0548 46.4896)" fill="#BEC2FD"/>
<circle cx="59.0548" cy="31.4115" r="1.25648" transform="rotate(-90 59.0548 31.4115)" fill="#BEC2FD"/>
<circle cx="59.0548" cy="16.3343" r="1.25648" transform="rotate(-90 59.0548 16.3343)" fill="#BEC2FD"/>
<circle cx="59.0548" cy="1.25621" r="1.25648" transform="rotate(-90 59.0548 1.25621)" fill="#BEC2FD"/>
<circle cx="75.8078" cy="76.6449" r="1.25648" transform="rotate(-90 75.8078 76.6449)" fill="#BEC2FD"/>
<circle cx="75.8078" cy="61.5677" r="1.25648" transform="rotate(-90 75.8078 61.5677)" fill="#BEC2FD"/>
<circle cx="75.8078" cy="46.4896" r="1.25648" transform="rotate(-90 75.8078 46.4896)" fill="#BEC2FD"/>
<circle cx="75.8078" cy="31.4115" r="1.25648" transform="rotate(-90 75.8078 31.4115)" fill="#BEC2FD"/>
<circle cx="75.8078" cy="16.3343" r="1.25648" transform="rotate(-90 75.8078 16.3343)" fill="#BEC2FD"/>
<circle cx="75.8078" cy="1.25621" r="1.25648" transform="rotate(-90 75.8078 1.25621)" fill="#BEC2FD"/>
<circle cx="92.5607" cy="76.6449" r="1.25648" transform="rotate(-90 92.5607 76.6449)" fill="#BEC2FD"/>
<circle cx="92.5607" cy="61.5668" r="1.25648" transform="rotate(-90 92.5607 61.5668)" fill="#BEC2FD"/>
<circle cx="92.5612" cy="46.4896" r="1.25648" transform="rotate(-90 92.5612 46.4896)" fill="#BEC2FD"/>
<circle cx="92.5612" cy="31.4115" r="1.25648" transform="rotate(-90 92.5612 31.4115)" fill="#BEC2FD"/>
<circle cx="92.5612" cy="16.3343" r="1.25648" transform="rotate(-90 92.5612 16.3343)" fill="#BEC2FD"/>
<circle cx="92.5612" cy="1.25621" r="1.25648" transform="rotate(-90 92.5612 1.25621)" fill="#BEC2FD"/>
<circle cx="109.314" cy="76.6449" r="1.25648" transform="rotate(-90 109.314 76.6449)" fill="#BEC2FD"/>
<circle cx="109.314" cy="61.5677" r="1.25648" transform="rotate(-90 109.314 61.5677)" fill="#BEC2FD"/>
<circle cx="109.314" cy="46.4896" r="1.25648" transform="rotate(-90 109.314 46.4896)" fill="#BEC2FD"/>
<circle cx="109.314" cy="31.4115" r="1.25648" transform="rotate(-90 109.314 31.4115)" fill="#BEC2FD"/>
<circle cx="109.314" cy="16.3343" r="1.25648" transform="rotate(-90 109.314 16.3343)" fill="#BEC2FD"/>
<circle cx="109.314" cy="1.25621" r="1.25648" transform="rotate(-90 109.314 1.25621)" fill="#BEC2FD"/>
<circle cx="126.067" cy="76.6449" r="1.25648" transform="rotate(-90 126.067 76.6449)" fill="#BEC2FD"/>
<circle cx="126.067" cy="61.5677" r="1.25648" transform="rotate(-90 126.067 61.5677)" fill="#BEC2FD"/>
<circle cx="126.067" cy="46.4896" r="1.25648" transform="rotate(-90 126.067 46.4896)" fill="#BEC2FD"/>
<circle cx="126.067" cy="31.4115" r="1.25648" transform="rotate(-90 126.067 31.4115)" fill="#BEC2FD"/>
<circle cx="126.067" cy="16.3343" r="1.25648" transform="rotate(-90 126.067 16.3343)" fill="#BEC2FD"/>
<circle cx="126.067" cy="1.25621" r="1.25648" transform="rotate(-90 126.067 1.25621)" fill="#BEC2FD"/>
<circle cx="142.82" cy="76.6449" r="1.25648" transform="rotate(-90 142.82 76.6449)" fill="#BEC2FD"/>
<circle cx="142.82" cy="61.5677" r="1.25648" transform="rotate(-90 142.82 61.5677)" fill="#BEC2FD"/>
<circle cx="142.82" cy="46.4896" r="1.25648" transform="rotate(-90 142.82 46.4896)" fill="#BEC2FD"/>
<circle cx="142.82" cy="31.4115" r="1.25648" transform="rotate(-90 142.82 31.4115)" fill="#BEC2FD"/>
<circle cx="142.82" cy="16.3343" r="1.25648" transform="rotate(-90 142.82 16.3343)" fill="#BEC2FD"/>
<circle cx="142.82" cy="1.25621" r="1.25648" transform="rotate(-90 142.82 1.25621)" fill="#BEC2FD"/>
<circle cx="159.573" cy="76.6449" r="1.25648" transform="rotate(-90 159.573 76.6449)" fill="#BEC2FD"/>
<circle cx="159.573" cy="61.5677" r="1.25648" transform="rotate(-90 159.573 61.5677)" fill="#BEC2FD"/>
<circle cx="159.573" cy="46.4896" r="1.25648" transform="rotate(-90 159.573 46.4896)" fill="#BEC2FD"/>
<circle cx="159.573" cy="31.4115" r="1.25648" transform="rotate(-90 159.573 31.4115)" fill="#BEC2FD"/>
<circle cx="159.573" cy="16.3343" r="1.25648" transform="rotate(-90 159.573 16.3343)" fill="#BEC2FD"/>
<circle cx="159.573" cy="1.25621" r="1.25648" transform="rotate(-90 159.573 1.25621)" fill="#BEC2FD"/>
<circle cx="3.35062" cy="61.1484" r="3.35062" transform="rotate(-90 3.35062 61.1484)" fill="#F3DC6B"/>
<circle cx="23.0355" cy="76.6451" r="2.09414" transform="rotate(-90 23.0355 76.6451)" fill="#FFDE81"/>
</svg>
