<svg width="161" height="79" fill="none" xmlns="http://www.w3.org/2000/svg"><circle cx="42.301" cy="76.645" r="1.256" transform="rotate(-90 42.301 76.645)" fill="#BEC2FD"/><circle cx="42.301" cy="61.568" r="1.256" transform="rotate(-90 42.301 61.568)" fill="#BEC2FD"/><circle cx="42.301" cy="46.49" r="1.256" transform="rotate(-90 42.301 46.49)" fill="#BEC2FD"/><circle cx="42.302" cy="31.412" r="1.256" transform="rotate(-90 42.302 31.412)" fill="#BEC2FD"/><circle cx="42.302" cy="16.334" r="1.256" transform="rotate(-90 42.302 16.334)" fill="#BEC2FD"/><circle cx="42.302" cy="1.256" r="1.256" transform="rotate(-90 42.302 1.256)" fill="#BEC2FD"/><circle cx="59.055" cy="76.645" r="1.256" transform="rotate(-90 59.055 76.645)" fill="#BEC2FD"/><circle cx="59.055" cy="61.568" r="1.256" transform="rotate(-90 59.055 61.568)" fill="#BEC2FD"/><circle cx="59.055" cy="46.49" r="1.256" transform="rotate(-90 59.055 46.49)" fill="#BEC2FD"/><circle cx="59.055" cy="31.412" r="1.256" transform="rotate(-90 59.055 31.412)" fill="#BEC2FD"/><circle cx="59.055" cy="16.334" r="1.256" transform="rotate(-90 59.055 16.334)" fill="#BEC2FD"/><circle cx="59.055" cy="1.256" r="1.256" transform="rotate(-90 59.055 1.256)" fill="#BEC2FD"/><circle cx="75.808" cy="76.645" r="1.256" transform="rotate(-90 75.808 76.645)" fill="#BEC2FD"/><circle cx="75.808" cy="61.568" r="1.256" transform="rotate(-90 75.808 61.568)" fill="#BEC2FD"/><circle cx="75.808" cy="46.49" r="1.256" transform="rotate(-90 75.808 46.49)" fill="#BEC2FD"/><circle cx="75.808" cy="31.412" r="1.256" transform="rotate(-90 75.808 31.412)" fill="#BEC2FD"/><circle cx="75.808" cy="16.334" r="1.256" transform="rotate(-90 75.808 16.334)" fill="#BEC2FD"/><circle cx="75.808" cy="1.256" r="1.256" transform="rotate(-90 75.808 1.256)" fill="#BEC2FD"/><circle cx="92.561" cy="76.645" r="1.256" transform="rotate(-90 92.56 76.645)" fill="#BEC2FD"/><circle cx="92.561" cy="61.567" r="1.256" transform="rotate(-90 92.56 61.567)" fill="#BEC2FD"/><circle cx="92.561" cy="46.49" r="1.256" transform="rotate(-90 92.561 46.49)" fill="#BEC2FD"/><circle cx="92.561" cy="31.412" r="1.256" transform="rotate(-90 92.561 31.412)" fill="#BEC2FD"/><circle cx="92.561" cy="16.334" r="1.256" transform="rotate(-90 92.561 16.334)" fill="#BEC2FD"/><circle cx="92.561" cy="1.256" r="1.256" transform="rotate(-90 92.561 1.256)" fill="#BEC2FD"/><circle cx="109.314" cy="76.645" r="1.256" transform="rotate(-90 109.314 76.645)" fill="#BEC2FD"/><circle cx="109.314" cy="61.568" r="1.256" transform="rotate(-90 109.314 61.568)" fill="#BEC2FD"/><circle cx="109.314" cy="46.49" r="1.256" transform="rotate(-90 109.314 46.49)" fill="#BEC2FD"/><circle cx="109.314" cy="31.412" r="1.256" transform="rotate(-90 109.314 31.412)" fill="#BEC2FD"/><circle cx="109.314" cy="16.334" r="1.256" transform="rotate(-90 109.314 16.334)" fill="#BEC2FD"/><circle cx="109.314" cy="1.256" r="1.256" transform="rotate(-90 109.314 1.256)" fill="#BEC2FD"/><circle cx="126.067" cy="76.645" r="1.256" transform="rotate(-90 126.067 76.645)" fill="#BEC2FD"/><circle cx="126.067" cy="61.568" r="1.256" transform="rotate(-90 126.067 61.568)" fill="#BEC2FD"/><circle cx="126.067" cy="46.49" r="1.256" transform="rotate(-90 126.067 46.49)" fill="#BEC2FD"/><circle cx="126.067" cy="31.412" r="1.256" transform="rotate(-90 126.067 31.412)" fill="#BEC2FD"/><circle cx="126.067" cy="16.334" r="1.256" transform="rotate(-90 126.067 16.334)" fill="#BEC2FD"/><circle cx="126.067" cy="1.256" r="1.256" transform="rotate(-90 126.067 1.256)" fill="#BEC2FD"/><circle cx="142.82" cy="76.645" r="1.256" transform="rotate(-90 142.82 76.645)" fill="#BEC2FD"/><circle cx="142.82" cy="61.568" r="1.256" transform="rotate(-90 142.82 61.568)" fill="#BEC2FD"/><circle cx="142.82" cy="46.49" r="1.256" transform="rotate(-90 142.82 46.49)" fill="#BEC2FD"/><circle cx="142.82" cy="31.412" r="1.256" transform="rotate(-90 142.82 31.412)" fill="#BEC2FD"/><circle cx="142.82" cy="16.334" r="1.256" transform="rotate(-90 142.82 16.334)" fill="#BEC2FD"/><circle cx="142.82" cy="1.256" r="1.256" transform="rotate(-90 142.82 1.256)" fill="#BEC2FD"/><circle cx="159.573" cy="76.645" r="1.256" transform="rotate(-90 159.573 76.645)" fill="#BEC2FD"/><circle cx="159.573" cy="61.568" r="1.256" transform="rotate(-90 159.573 61.568)" fill="#BEC2FD"/><circle cx="159.573" cy="46.49" r="1.256" transform="rotate(-90 159.573 46.49)" fill="#BEC2FD"/><circle cx="159.573" cy="31.412" r="1.256" transform="rotate(-90 159.573 31.412)" fill="#BEC2FD"/><circle cx="159.573" cy="16.334" r="1.256" transform="rotate(-90 159.573 16.334)" fill="#BEC2FD"/><circle cx="159.573" cy="1.256" r="1.256" transform="rotate(-90 159.573 1.256)" fill="#BEC2FD"/><circle cx="3.351" cy="61.148" r="3.351" transform="rotate(-90 3.35 61.148)" fill="#F3DC6B"/><circle cx="23.035" cy="76.645" r="2.094" transform="rotate(-90 23.035 76.645)" fill="#FFDE81"/></svg>