<svg width="18" height="18" fill="none" xmlns="http://www.w3.org/2000/svg"><path fill-rule="evenodd" clip-rule="evenodd" d="M9.078 14.994c.565 0 .565-.88.565-1.221 0-.611.566-1.222 1.132-1.222s1.537 1.048 2.264 1.832c.566.611.566.611 1.132.611h1.697S17 14.948 17 13.773c0-.382-.388-1.03-1.698-2.444-1.131-1.221-1.712-.59 0-3.053 1.043-1.5 1.802-2.86 1.672-3.252-.125-.374-3.025-.97-3.37-.413-1.131 1.832-1.339 2.281-1.697 3.054-.566 1.221-.622 1.832-1.132 1.832-.514 0-.566-1.185-.566-1.832 0-2.02.271-3.448-.566-3.665H7.946c-.911 0-1.698.61-1.698.61s-.702.592-.566.612c.169.024 1.132-.253 1.132.61v1.222s.005 2.443-.566 2.443c-.566 0-1.698-2.443-2.83-4.275-.444-.72-.565-.611-1.131-.611-.607 0-1.131.025-1.698.025-.566 0-.638.39-.566.586 1.132 3.054 1.945 4.971 4.096 7.388 1.972 2.216 3.29 2.334 4.393 2.384.283.013 0 0 .566 0Z" fill="#fff"/></svg>