<svg width="18" height="18" fill="none" xmlns="http://www.w3.org/2000/svg"><path d="M10.35 10.35C9.25 11.485 9.17 12.9 9.075 16c2.89 0 4.885-.01 5.915-1.01 1-1.03 1.01-3.12 1.01-5.915-3.1.1-4.515.175-5.65 1.275ZM2 9.075c0 2.795.01 4.885 1.01 5.915 1.03 1 3.025 1.01 5.915 1.01-.1-3.1-.175-4.515-1.275-5.65C6.515 9.25 5.1 9.17 2 9.075ZM8.925 2C6.04 2 4.04 2.01 3.01 3.01 2.01 4.04 2 6.13 2 8.925c3.1-.1 4.515-.175 5.65-1.275C8.75 6.515 8.83 5.1 8.925 2Zm1.425 5.65C9.25 6.515 9.17 5.1 9.075 2c2.89 0 4.885.01 5.915 1.01 1 1.03 1.01 3.12 1.01 5.915-3.1-.1-4.515-.175-5.65-1.275Z" fill="#fff"/><path d="M17 9.086v-.172c-3.543-.114-5.16-.2-6.457-1.457C9.286 6.16 9.194 4.543 9.086 1h-.172c-.114 3.543-.2 5.16-1.457 6.457C6.16 8.714 4.543 8.806 1 8.914v.172c3.543.114 5.16.2 6.457 1.457C8.714 11.84 8.806 13.457 8.914 17h.172c.114-3.543.2-5.16 1.457-6.457C11.84 9.286 13.457 9.194 17 9.086Z" fill="#B9C2D3"/></svg>