<svg width="18" height="18" fill="none" xmlns="http://www.w3.org/2000/svg"><path fill-rule="evenodd" clip-rule="evenodd" d="M16.83 6.077s-.166-1.18-.676-1.7c-.646-.681-1.37-.685-1.703-.724-2.379-.174-5.947-.174-5.947-.174h-.008s-3.568 0-5.947.174c-.333.04-1.057.043-1.704.725-.51.52-.675 1.699-.675 1.699S0 7.463 0 8.847v1.3c0 1.385.17 2.77.17 2.77s.166 1.18.675 1.7c.647.682 1.497.66 1.875.732 1.36.131 5.78.172 5.78.172s3.572-.005 5.951-.179c.332-.04 1.057-.043 1.703-.725.51-.52.676-1.7.676-1.7s.17-1.384.17-2.77v-1.3c0-1.384-.17-2.77-.17-2.77ZM6.745 11.72V6.91l4.592 2.413-4.592 2.397Z" fill="#fff"/></svg>