<svg width="18" height="18" viewBox="0 0 18 18" fill="none" xmlns="http://www.w3.org/2000/svg">
<path d="M10.35 10.35C9.25 11.485 9.17 12.9 9.075 16C11.965 16 13.96 15.99 14.99 14.99C15.99 13.96 16 11.87 16 9.075C12.9 9.175 11.485 9.25 10.35 10.35ZM2 9.075C2 11.87 2.01 13.96 3.01 14.99C4.04 15.99 6.035 16 8.925 16C8.825 12.9 8.75 11.485 7.65 10.35C6.515 9.25 5.1 9.17 2 9.075ZM8.925 2C6.04 2 4.04 2.01 3.01 3.01C2.01 4.04 2 6.13 2 8.925C5.1 8.825 6.515 8.75 7.65 7.65C8.75 6.515 8.83 5.1 8.925 2ZM10.35 7.65C9.25 6.515 9.17 5.1 9.075 2C11.965 2 13.96 2.01 14.99 3.01C15.99 4.04 16 6.13 16 8.925C12.9 8.825 11.485 8.75 10.35 7.65Z" fill="white"/>
<path d="M17 9.08571V8.91429C13.4571 8.8 11.84 8.71429 10.5429 7.45714C9.28572 6.16 9.19429 4.54286 9.08571 1H8.91429C8.8 4.54286 8.71429 6.16 7.45714 7.45714C6.16 8.71429 4.54286 8.80572 1 8.91429V9.08571C4.54286 9.2 6.16 9.28572 7.45714 10.5429C8.71429 11.84 8.80572 13.4571 8.91429 17H9.08571C9.2 13.4571 9.28572 11.84 10.5429 10.5429C11.84 9.28572 13.4571 9.19429 17 9.08571Z" fill="#B9C2D3"/>
</svg>
