<svg width="18" height="18" viewBox="0 0 18 18" fill="none" xmlns="http://www.w3.org/2000/svg">
<path d="M7.07482 14.2499C6.63523 14.2499 6.70993 14.0839 6.55832 13.6654L5.26562 9.41098L15.2162 3.50781" fill="#ECECEC"/>
<path d="M7.07324 14.2503C7.41247 14.2503 7.56235 14.0952 7.75169 13.9111L9.56089 12.1519L7.30414 10.791" fill="#BBBBBB"/>
<path d="M7.30396 10.7914L12.7722 14.8314C13.3962 15.1757 13.8466 14.9975 14.002 14.2521L16.2279 3.76294C16.4558 2.84927 15.8796 2.43488 15.2827 2.70589L2.21238 7.74575C1.32021 8.10359 1.32541 8.60134 2.04976 8.82312L5.40389 9.87L13.1691 4.97104C13.5356 4.74875 13.8721 4.86826 13.596 5.11333" fill="white"/>
</svg>
