<svg width="23" height="20" viewBox="0 0 23 20" fill="none" xmlns="http://www.w3.org/2000/svg">
<path d="M21.8364 2.56675L18.4735 17.3339C18.4735 17.3339 18.0032 18.3581 16.7099 17.8665L8.94968 12.6847L6.1279 11.4968L1.37777 10.104C1.37777 10.104 0.648795 9.8788 0.578192 9.38723C0.507589 8.89567 1.40131 8.62946 1.40131 8.62946L20.2841 2.1778C20.2841 2.1778 21.8362 1.58388 21.8362 2.567" fill="white"/>
<path d="M8.35243 17.1665C8.35243 17.1665 8.12591 17.148 7.84349 16.3696C7.56152 15.5914 6.12695 11.4952 6.12695 11.4952L17.532 5.18698C17.532 5.18698 18.1906 4.83878 18.167 5.18698C18.167 5.18698 18.2845 5.24848 17.9317 5.53519C17.5791 5.82203 8.97241 12.5603 8.97241 12.5603" fill="#D2E5F1"/>
<path d="M11.9238 14.6705L8.85451 17.1079C8.85451 17.1079 8.61446 17.2665 8.35205 17.1671L8.93982 12.6396" fill="#B5CFE4"/>
</svg>
