<svg width="23" height="20" fill="none" xmlns="http://www.w3.org/2000/svg"><path d="m21.836 2.567-3.362 14.767s-.47 1.024-1.764.532l-7.76-5.181-2.822-1.188-4.75-1.393s-.73-.225-.8-.717c-.07-.491.823-.758.823-.758l18.883-6.451s1.552-.594 1.552.389" fill="#fff"/><path d="M8.352 17.166s-.226-.018-.509-.796c-.281-.779-1.716-4.875-1.716-4.875l11.405-6.308s.659-.348.635 0c0 0 .117.061-.235.348-.353.287-8.96 7.025-8.96 7.025" fill="#D2E5F1"/><path d="m11.924 14.67-3.07 2.438s-.24.159-.502.06l.588-4.528" fill="#B5CFE4"/></svg>